<svg id="faveable" xmlns="http://www.w3.org/2000/svg" xml:space="preserve" viewBox="0 0 160 50" version="1.1" y="0px" x="0px" xmlns:xlink="http://www.w3.org/1999/xlink" enable-background="new 0 0 160 50">
  <g fill="#fff">
    <path d="m16.3 4.5c-1-0.4-2.1-0.7-3.1-0.7-3.3 0-4.9 2-4.9 5.8v2.7h6.8l-0.8 3.4h-6v17.6h-4.2v-17.7h-3.6v-3.4h3.6v-2.8c0-5.9 3.4-9.1 8.8-9.1 1.6 0 3.1 0.2 4.1 0.7l-0.7 3.5z"/>
    <path d="m33.3 33.7c-1.5-0.3-3-1.5-3.3-3.3-1 2.5-3.2 3.3-5.6 3.3-4.1 0-6.8-3.1-6.8-6.4 0-4.1 3.3-6.4 6.9-6.7l4.9-0.4v-1.3c0-1.9-1.1-3.4-4.1-3.4-2.1 0-4.2 0.7-5.8 1.7l-0.8-3.5c1.9-1.2 4.3-1.8 6.8-1.8 4.6 0 8.1 2.6 8.1 7.5v8.4c0 1.9 1 3 2.3 3.2l-2.6 2.7zm-3.8-10.1l-4 0.4c-2.7 0.2-3.7 1.8-3.7 3.4 0 1.5 1.2 2.8 3.1 2.8 2.5 0 4.6-1.9 4.6-4.7v-1.9z"/>
    <path d="m47.1 33.5h-1.7l-8.7-21.3h4.2l3.9 9.3c0.6 1.3 1.2 3.2 1.7 4.8h0.1c0.5-1.6 1.1-3.4 1.7-4.8l3.8-9.3h3.9l-8.9 21.3z"/>
    <path d="m77.8 21.4l-2.3 2.3h-12.7c0.1 2.6 2.5 6.3 7.4 6.3 2.7 0 4.6-0.7 6.1-1.7l-0.4 4.1c-1.5 0.8-3.4 1.3-6.2 1.3-6 0-11.2-4.4-11.2-11 0-7.1 5.5-11 10.4-11 5.8 0 9.1 4.1 9.1 7.9-0.1 0.7-0.1 1.3-0.2 1.8zm-8.7-6.1c-2.6 0-5.4 2.1-6 5h10.5c0.1-0.2 0.1-0.4 0.1-0.6-0.1-2-1.8-4.4-4.6-4.4z"/>
    <path d="m97.5 33.7c-1.5-0.3-3-1.5-3.3-3.3-1 2.5-3.2 3.3-5.6 3.3-4.1 0-6.8-3.1-6.8-6.4 0-4.1 3.3-6.4 6.9-6.7l4.9-0.4v-1.3c0-1.9-1.1-3.4-4.1-3.4-2.1 0-4.2 0.7-5.8 1.7l-0.8-3.5c1.9-1.2 4.3-1.8 6.8-1.8 4.6 0 8.1 2.6 8.1 7.5v8.4c0 1.9 1 3 2.3 3.2l-2.6 2.7zm-4-10.1l-4 0.4c-2.7 0.2-3.7 1.8-3.7 3.4 0 1.5 1.2 2.8 3.1 2.8 2.5 0 4.6-1.9 4.6-4.7v-1.9z"/>
    <path d="m113.2 33.7c-3.7 0-7.4-1.5-8.9-2.6v-30.8h4.2v13.2c0.8-0.8 3.5-1.7 5.8-1.7 6 0 10.5 4.5 10.5 10.8 0 6.4-4.5 11.1-11.6 11.1zm0.6-18.2c-2.8 0-4.7 1.3-5.4 2.1v11.4c0.7 0.4 2.7 1.1 4.3 1.1 4.9 0 7.7-3 7.7-7.4 0.1-4.2-2.8-7.2-6.6-7.2z"/>
    <path d="m134.2 34c-1.4-0.4-4.1-1.7-4.1-5.8v-28h4.2v27.4c0 2 1.5 3.2 2.8 3.5l-2.9 2.9z"/>
    <path d="m159.4 21.4l-2.3 2.3h-12.6c0.1 2.6 2.5 6.3 7.4 6.3 2.7 0 4.6-0.7 6.1-1.7l-0.4 4.1c-1.5 0.8-3.4 1.3-6.2 1.3-6 0-11.2-4.4-11.2-11 0-7.1 5.5-11 10.4-11 5.8 0 9.1 4.1 9.1 7.9-0.2 0.7-0.2 1.3-0.3 1.8zm-8.7-6.1c-2.6 0-5.4 2.1-6 5h10.5c0.1-0.2 0.1-0.4 0.1-0.6 0-2-1.8-4.4-4.6-4.4z"/>
  </g>
  <g fill="#fff">
    <path d="m10.6 49.7l-3.4-4.7h-1.3v4.8h-1.6v-10.9h3.2c1.5 0 3.2 1 3.2 3 0 1.5-0.8 2.3-1.9 2.8l3.7 5h-1.9zm-3.3-9.3h-1.4v3.3h1.3c1 0 1.8-0.5 1.8-1.6 0.1-1.2-0.8-1.7-1.7-1.7z"/>
    <path d="m21.9 49.7l-1.2-2.8h-4.2l-1.2 2.8h-1.6l4.6-10.9h0.6l4.6 10.9h-1.6zm-2.8-6.7c-0.2-0.3-0.3-0.8-0.4-1.3h-0.1c-0.1 0.4-0.3 1-0.4 1.3l-1.1 2.6h3.1l-1.1-2.6z"/>
    <path d="m35.4 50l-5-5.5c-0.8-0.9-1.7-2-2.5-2.9h-0.1c0.1 1 0.1 1.9 0.1 2.7v5.4h-1.6v-10.8h1.1l4.6 5.1c0.6 0.7 1.6 1.8 2.2 2.6h0.1c-0.1-0.8-0.1-1.7-0.1-2.5v-5.1h1.8v11h-0.6z"/>
    <path d="m45.3 49.7l-4.1-5v5h-1.6v-10.8h1.6v5.1l4.2-5.1h1.8l-4.4 5.3 4.6 5.5h-2.1z"/>
    <path d="m50.2 49.7v-10.8h1.6v10.8h-1.6z"/>
    <path d="m64.8 50l-5-5.5c-0.8-0.9-1.7-2-2.5-2.9h-0.1c0.1 1 0.1 1.9 0.1 2.7v5.4h-1.6v-10.8h1.1l4.6 5.1c0.6 0.7 1.6 1.8 2.2 2.6h0.1c-0.1-0.8-0.1-1.7-0.1-2.5v-5.1h1.6v11h-0.4z"/>
    <path d="m74.3 50c-2.9 0-5.9-2-5.9-5.6 0-3.7 3.1-5.6 5.8-5.6 1.5 0 2.7 0.3 3.5 0.8l-0.3 1.5c-0.8-0.5-1.8-0.8-3-0.8-2.1 0-4.4 1.4-4.4 4.2s2.2 4.1 4.4 4.1c1 0 1.8-0.2 2.3-0.6v-2.4h-2.5v-1.3h4v4.5c-1 0.8-2.3 1.2-3.9 1.2z"/>
    <path d="m90.9 40.4v9.4h-1.6v-9.4h-3.5v-1.4h8.6v1.4h-3.5z"/>
    <path d="m104.1 49.7v-4.7h-5.5v4.7h-1.6v-10.8h1.6v4.6h5.5v-4.6h1.6v10.8h-1.6z"/>
    <path d="m109.3 49.7v-10.8h5.8v1.4h-4.2v3.2h3.5v1.5h-3.5v3.3h4.8v1.4h-6.4z"/>
    <path d="m127 49.7h-3.5v-10.8h3c1.5 0 3 1 3 2.8 0 0.8-0.4 1.6-1 1.9 1 0.3 2 1.4 2 2.8 0 2.3-1.8 3.3-3.5 3.3zm-0.8-9.4h-1.2v2.9h1.2c0.9 0 1.7-0.4 1.7-1.5 0-1-0.8-1.4-1.7-1.4zm0.5 4.2h-1.7v3.9h1.6c1.2 0 2.2-0.6 2.2-1.9 0.1-1.3-1-2-2.1-2z"/>
    <path d="m133.6 49.7v-10.8h5.8v1.4h-4.2v3.2h3.5v1.5h-3.5v3.3h4.8v1.4h-6.4z"/>
    <path d="m145.1 49.9c-1.2 0-2.2-0.3-2.7-0.7l-0.2-1.7c0.8 0.6 1.9 1 3 1 1.2 0 2-0.6 2-1.6s-0.6-1.5-1.8-1.9c-1.9-0.6-2.9-1.6-2.9-3.1s1.1-2.9 3.4-2.9c1.1 0 1.9 0.3 2.3 0.6l-0.3 1.3c-0.4-0.3-1.2-0.6-2.1-0.6-1.1 0-1.7 0.7-1.7 1.4 0 0.8 0.6 1.2 1.7 1.6 1.8 0.6 3.1 1.5 3.1 3.4-0.2 1.9-1.4 3.2-3.8 3.2z"/>
    <path d="m155.6 40.4v9.4h-1.6v-9.4h-3.5v-1.4h8.6v1.4h-3.5z"/>
  </g>
</svg>